<svg width="14" height="16" xmlns="http://www.w3.org/2000/svg"><path d="M13.504 12.469a8.644 8.644 0 0 1-.88 1.546c-.463.645-.842 1.092-1.134 1.34-.453.407-.938.615-1.458.627-.373 0-.823-.104-1.346-.314-.526-.21-1.008-.313-1.45-.313-.463 0-.96.103-1.49.313-.532.21-.96.32-1.288.33-.498.021-.995-.193-1.49-.643-.317-.27-.713-.732-1.187-1.387a9.508 9.508 0 0 1-1.254-2.434C.176 10.535 0 9.568 0 8.632 0 7.56.237 6.635.712 5.86a4.13 4.13 0 0 1 1.492-1.474A4.083 4.083 0 0 1 4.22 3.83c.396 0 .914.12 1.56.355.642.236 1.055.355 1.236.355.136 0 .594-.14 1.372-.418.735-.259 1.356-.366 1.864-.324 1.378.109 2.413.64 3.101 1.595-1.232.73-1.841 1.752-1.83 3.062.012 1.021.391 1.87 1.136 2.545a3.74 3.74 0 0 0 1.134.727c-.09.258-.187.505-.289.742zM10.344.32c0 .8-.299 1.547-.895 2.239-.72.822-1.59 1.297-2.534 1.222a2.435 2.435 0 0 1-.02-.303c0-.768.343-1.59.95-2.263A3.67 3.67 0 0 1 9.003.366C9.47.144 9.912.021 10.327 0c.012.107.017.214.017.32z"/></svg>