<svg width="1334" height="1334" xmlns="http://www.w3.org/2000/svg"><g fill="none"><path d="M1333.333 666.673c0 368.195-298.474 666.66-666.654 666.66C298.469 1333.333 0 1034.868 0 666.673 0 298.48 298.47 0 666.679 0c368.18 0 666.654 298.48 666.654 666.673" fill="#59B734"/><path d="M730.593 1032.333H377V688.39h706.535c-10.552 191.82-164.54 343.944-352.942 343.944" fill="#FFF"/><path d="M730.593 1032.333H377V688.39h706.535c-10.552 191.82-164.54 343.944-352.942 343.944" fill="#E6F3D8"/><path d="M730.593 301.386H377v343.947h706.535c-10.552-191.75-164.54-343.947-352.942-343.947" fill="#FFF"/></g></svg>