<svg width="43" height="32" xmlns="http://www.w3.org/2000/svg"><path d="M42.75 6.703v-.076a1.65 1.65 0 0 0-.16-.302c-.026-.025-.039-.05-.039-.076L35.552.233c-.292-.227-.583-.227-.875 0-.238.277-.238.555 0 .832l5.806 5.033H.886c-.397.05-.61.252-.636.605.08.303.292.492.636.568h39.597l-5.806 5.032c-.238.278-.238.555 0 .833.292.277.583.277.875 0l6.96-5.979.079-.075c.106-.177.159-.303.159-.379zm-.636 17.988h-39.6l5.801-5.032c.292-.278.292-.555 0-.832-.291-.228-.582-.228-.874 0L.488 24.805l-.08.113a1.66 1.66 0 0 0-.158.303v.076c.026.151.08.277.159.378l.08.076 6.952 5.978c.292.278.583.278.874 0 .265-.252.265-.53 0-.832l-5.8-5.033h39.6c.344-.075.556-.264.635-.567-.053-.379-.265-.58-.636-.606z" fill="#5C666F" fill-rule="evenodd" opacity=".3"/></svg>