<svg width="14" height="16" xmlns="http://www.w3.org/2000/svg"><defs><linearGradient x1="80.759%" y1="50%" x2="-157.381%" y2="50%" id="a"><stop stop-color="#FFDF00" offset="0%"/><stop stop-color="#FBBC0E" offset="41%"/><stop stop-color="#F9A418" offset="78%"/><stop stop-color="#F89B1C" offset="100%"/></linearGradient><linearGradient x1="86.24%" y1="17.85%" x2="-50.156%" y2="194.794%" id="b"><stop stop-color="#EE4447" offset="0%"/><stop stop-color="#C5166C" offset="100%"/></linearGradient><linearGradient x1="-50.764%" y1="-95.606%" x2="60.598%" y2="48.884%" id="c"><stop stop-color="#269E6F" offset="0%"/><stop stop-color="#2BA06F" offset="5%"/><stop stop-color="#53B26B" offset="47%"/><stop stop-color="#6BBD69" offset="80%"/><stop stop-color="#74C168" offset="100%"/></linearGradient></defs><g fill="none"><path d="M.346.403a1.193 1.193 0 0 0-.277.838v13.188c-.018.304.08.604.277.838l.043.043 7.389-7.389v-.173L.388.36.347.403z" fill="#5BC8F3"/><path d="M10.239 10.386L7.778 7.92v-.173l2.461-2.464.055.03 2.918 1.658c.833.474.833 1.248 0 1.729l-2.918 1.652-.055.033z" fill="url(#a)"/><path d="M10.294 10.353L7.778 7.835.346 15.267c.274.29.727.327 1.239.036l8.71-4.95" fill="url(#b)"/><path d="M10.294 5.317L1.584.367C1.073.075.618.111.345.402l7.432 7.432 2.516-2.518z" fill="url(#c)"/></g></svg>