<svg width="24" height="23" xmlns="http://www.w3.org/2000/svg"><path d="M12.453 1.816a.515.515 0 0 0-.906 0L1.608 20.164a.515.515 0 0 0 .453.76h19.877a.515.515 0 0 0 .453-.76L12.453 1.816zm1.36-.736l9.938 18.348a2.061 2.061 0 0 1-1.813 3.043H2.061A2.061 2.061 0 0 1 .25 19.428L10.187 1.08a2.061 2.061 0 0 1 3.625 0zm-2.605 5.852H13.3l-.173 7.3h-1.744l-.174-7.3zm-.204 9.897c0-.733.491-1.208 1.253-1.208.763 0 1.254.475 1.254 1.208 0 .724-.491 1.2-1.254 1.2-.762 0-1.253-.476-1.253-1.2z" fill="#FFF"/></svg>